<svg width="178" height="178" viewBox="0 0 178 178" fill="none" xmlns="http://www.w3.org/2000/svg">
<path fill-rule="evenodd" clip-rule="evenodd" d="M48.7082 24.4463C54.2848 38.2866 53.443 48.9635 49.7455 58.388C47.4644 64.2022 44.0435 69.6696 40.0757 75.2341C38.2228 77.8327 36.2748 80.4198 34.2796 83.0695C34.1398 83.2552 33.9998 83.4411 33.8596 83.6274C31.7273 86.46 29.5506 89.3626 27.4475 92.354L32.5431 95.9365C34.5809 93.0381 36.7011 90.2098 38.8361 87.3736C38.9796 87.183 39.1232 86.9924 39.2668 86.8016C41.2509 84.1666 43.2454 81.5178 45.1474 78.8505C49.2245 73.1327 52.9874 67.18 55.5442 60.663C60.7606 47.3667 60.7464 32.2473 49.8713 12.4714L46.6188 14.26C46.42 13.2617 45.8596 15.4453 45.6066 14.3696C45.0044 11.8093 43.5 19.2756 41.8433 16.4061L40.2313 18.8233C39.1947 15.3877 40.9323 21.0289 38.8874 17.4871L37.0957 19.714C36.6477 21.9408 36.1998 20.6047 35.7696 19.2686C35.2047 27.6292 31.8683 35.6773 27.1122 43.4987C22.6758 50.7945 17.071 57.7631 11.4487 64.4653C10.3952 65.721 9.338 66.9709 8.28734 68.213C3.79435 73.5248 4.70455 77.1854 1.26009 82.0657L1.06606 87.1667C4.33742 82.5317 8.48245 77.63 12.9608 72.3342C14.0309 71.0687 15.12 69.7808 16.2208 68.4686C21.8644 61.7411 27.7341 54.4649 32.4345 46.7351C37.2377 38.8361 40.8879 30.3317 41.8433 21.3304C44.6037 33.6708 41.398 44.4177 35.6224 54.638C32.5877 60.0081 28.87 65.1825 24.9626 70.3393C23.7967 71.8779 22.6069 73.4238 21.4145 74.973C18.6568 78.5559 15.8853 82.1568 13.3643 85.7277L18.4529 89.3202C20.8973 85.8577 23.5399 82.4246 26.2592 78.8919C27.4702 77.3185 28.6965 75.7254 29.9273 74.1012C33.8762 68.8896 37.7992 63.4469 41.0454 57.7026C46.6328 47.8152 50.2909 36.891 48.7082 24.4463Z" fill="#7CB7D7"/>
<path fill-rule="evenodd" clip-rule="evenodd" d="M12.7963 88.3359C25.7589 91.2338 34.3564 97.9657 40.8488 106.407C47.392 114.914 51.7522 125.026 56.1467 135.217C57.6355 138.669 59.1283 142.131 60.7112 145.543L66.3616 142.921C64.9403 139.858 63.5471 136.624 62.1192 133.31C57.6541 122.945 52.8498 111.793 45.7862 102.609C36.6907 90.7837 23.7756 81.9989 3.05187 80.7237C1.93049 80.6547 3.77165 80.3086 2.60392 80.2842L4.3957 83.8472C0.998425 83.2164 5.60904 90.5277 1.70803 90.5277L4.3957 88.7463C1.39232 88.1605 6.47519 92.9521 3.05187 92.9521L2.60389 89.3202C2.15607 92.9521 2.15606 92.9521 1.70803 95.9869C8.32443 100.675 13.4297 107.431 17.6919 115.23C21.8101 122.766 25.0602 131.15 28.0661 139.404C28.6301 140.953 29.187 142.501 29.7402 144.04C31.5176 148.983 33.2575 153.821 35.0767 158.224C35.6749 159.672 36.7007 158.461 37.3202 159.802H42.5563C40.1786 154.653 38.0012 148.6 35.646 142.053C35.0823 140.486 34.5083 138.891 33.919 137.273C30.9018 128.988 27.5183 120.222 23.158 112.243C19.1526 104.913 14.2562 98.1424 7.97906 92.9521C16.7814 96.8113 23.3324 103.331 28.6542 111.134C33.0227 117.539 36.5426 124.792 39.7492 132.169C41.0287 135.112 42.2809 138.133 43.5197 141.121C45.3208 145.465 47.0935 149.742 48.88 153.612L54.5355 151.001C52.7727 147.182 51.1081 143.162 49.3658 138.955C48.1251 135.959 46.8449 132.867 45.4618 129.686C42.2034 122.19 38.4996 114.514 33.8001 107.624C28.4008 99.7078 21.6636 92.8114 12.7963 88.3359Z" fill="#7CB7D7"/>
<path fill-rule="evenodd" clip-rule="evenodd" d="M50.1419 157.202C59.3648 146.039 69.5253 141.51 80.096 139.975C86.7389 139.011 93.6466 139.217 100.78 139.851C104.343 140.167 107.926 140.587 111.551 141.012L111.648 141.024C115.227 141.444 118.849 141.869 122.452 142.191L123.007 135.987C119.489 135.672 115.94 135.255 112.332 134.832L112.277 134.826C108.665 134.402 104.996 133.972 101.331 133.646C94.0052 132.995 86.5435 132.745 79.2009 133.811C64.5675 135.936 50.8096 143.242 39.2148 161.787C38.9791 162.164 40.9131 162.291 40.6792 162.678L44.7106 161.787C42.1438 164.664 44.769 158.845 42.5563 162.678L43.8148 162.232C41.8217 164.529 45.9624 160.624 44.2627 163.568L45.6065 163.123C50.5339 167.131 51.4298 168.022 53.2216 169.177C60.2704 166.245 68.207 165.332 76.5716 165.528C85.157 165.73 94.043 167.107 102.694 168.631C104.317 168.917 105.937 169.209 107.546 169.499C111.326 170.18 115.047 170.851 118.621 171.408C121.542 171.862 119.778 166.887 122.452 167.131L127.604 166.281C121.956 165.765 115.626 164.625 108.778 163.391C107.139 163.095 105.47 162.795 103.774 162.496C95.0908 160.967 85.8082 159.514 76.7178 159.301C68.8031 159.115 60.9229 159.873 53.6223 162.372C61.0387 157.14 69.4491 154.867 78.2973 154.159C85.8761 153.553 93.7662 154.104 101.646 154.995C104.811 155.352 108.039 155.775 111.24 156.194C115.836 156.795 120.377 157.389 124.595 157.774L125.162 151.571C120.992 151.19 116.73 150.631 112.286 150.047C109.079 149.626 105.777 149.193 102.346 148.805C94.3339 147.899 85.9767 147.296 77.8007 147.95C68.0531 148.73 58.5546 151.307 50.1419 157.202Z" fill="#7CB7D7"/>
<path fill-rule="evenodd" clip-rule="evenodd" d="M128.924 162.018C129.931 165.035 130.542 158.923 132.329 162.018L132.956 163.123C128.263 154.995 137.588 168.928 138.377 161.341C139.201 153.414 142.465 145.752 147.01 138.29C151.477 130.956 157.113 123.949 162.758 117.219C163.817 115.956 164.88 114.7 165.935 113.451C169.665 109.041 173.309 104.733 176.406 100.613C177.052 99.7547 174.468 98.9403 175.062 98.099L173.178 94.4713C169.908 99.1049 165.754 104.017 161.262 109.33C160.187 110.602 159.092 111.897 157.985 113.216C152.319 119.972 146.42 127.284 141.69 135.05C137.599 141.767 134.331 148.92 132.831 156.437C132.06 147.169 134.523 138.46 138.625 130.139C142.088 123.116 146.711 116.404 151.574 109.91C153.41 107.459 155.307 105.004 157.185 102.576C160.193 98.6845 163.149 94.8604 165.715 91.2258L160.627 87.6333C158.116 91.1903 155.329 94.7928 152.402 98.576C150.511 101.022 148.56 103.543 146.588 106.176C141.653 112.767 136.757 119.842 133.038 127.385C128.974 135.628 126.307 144.469 126.468 153.879C123.21 142.236 124.629 132.382 128.275 123.416C130.849 117.089 134.571 111.119 138.754 105.192C140.826 102.256 142.988 99.361 145.17 96.4404L145.227 96.364C147.419 93.4296 149.63 90.4681 151.73 87.4806L146.635 83.898C144.594 86.8003 142.437 89.6906 140.236 92.6364L140.156 92.7439C137.99 95.6431 135.785 98.5958 133.664 101.601C129.374 107.681 125.341 114.099 122.506 121.069C117.322 133.814 116.267 148.124 124.07 165.35C124.941 167.273 125.586 164.688 126.684 166.686L129.372 166.063C130.477 169.066 127.581 162.248 129.372 165.35L128.924 162.018Z" fill="#7CB7D7"/>
<path fill-rule="evenodd" clip-rule="evenodd" d="M164.075 87.4727C151.022 84.7013 142.559 78.1604 136.236 69.9202C132.056 64.4714 128.76 58.2064 125.729 51.5757C124.277 48.4007 122.9 45.1755 121.513 41.9256L121.331 41.5008C119.888 38.1212 118.431 34.7172 116.892 31.4017L111.242 34.0234C112.734 37.2389 114.156 40.5578 115.603 43.9465C115.666 44.0958 115.73 44.2452 115.794 44.3947C117.173 47.6258 118.578 50.9171 120.064 54.166C123.171 60.9604 126.694 67.7163 131.294 73.712C140.645 85.8983 154.231 94.647 176.944 95.1199L177.013 91.7838C180.411 92.4212 170.715 89.6371 174.614 89.637L175.062 86.614C178.066 87.1998 171.639 82.9565 175.062 82.9565L175.51 81.6204C177.013 84.2926 176.944 81.1774 175.062 79.8628C168.345 75.1689 163.177 68.3543 158.87 60.4731C154.752 52.9372 151.502 44.553 148.496 36.2993C147.932 34.7506 147.375 33.202 146.822 31.6634C145.165 27.0547 143.54 22.5364 141.853 18.3779C140.338 18.3779 138.63 18.659 137.883 17.0418L134.006 15.9011C136.384 21.0501 138.561 27.1029 140.916 33.6501C141.48 35.2173 142.054 36.8127 142.643 38.4308C145.661 46.7157 149.044 55.4809 153.404 63.4601C157.387 70.7475 162.25 77.4827 168.475 82.6611C159.712 78.7519 153.165 72.1791 147.835 64.3246C143.445 57.8552 139.905 50.5375 136.684 43.113C135.405 40.1664 134.155 37.1476 132.92 34.1642C131.105 29.783 129.323 25.4782 127.528 21.5899L121.872 24.2006C123.641 28.0327 125.316 32.0823 127.073 36.3281C128.311 39.3211 129.589 42.4117 130.969 45.5924C134.242 53.1345 137.964 60.871 142.681 67.8222C148.166 75.9055 155.025 82.9512 164.075 87.4727Z" fill="#7CB7D7"/>
<path fill-rule="evenodd" clip-rule="evenodd" d="M120.971 25.7996C112.963 34.0656 104.545 37.6553 95.8639 38.9988C89.5704 39.9728 83.009 39.784 76.1269 39.162C72.7325 38.8553 69.3005 38.4476 65.7934 38.0309L65.6559 38.0146C62.116 37.594 58.5023 37.1661 54.8647 36.8407L54.3098 43.0449C57.8433 43.3609 61.3691 43.7781 64.9211 44.2L65.0985 44.2211C68.5772 44.6344 72.0838 45.051 75.5662 45.3657C82.6447 46.0054 89.7886 46.2421 96.8166 45.1544C111.138 42.938 124.452 35.2983 136.151 15.9761L134.122 14.748C136.327 12.1358 129.233 15.4879 131.164 12.1427L129.82 11.252C129.82 12.1427 128.028 11.252 128.476 10.8066L126.236 11.2521C124.445 11.2521 126.236 9.91599 124.893 8.97945C117.028 13.2167 107.85 14.4986 98.0892 14.2693C89.5038 14.0676 80.6179 12.6902 71.967 11.1664C70.3438 10.8805 68.7242 10.5884 67.1151 10.2982C62.6523 9.49339 58.2706 8.7032 54.1175 8.09951C48.2943 9.91587 49.705 11.8875 47.6219 11.6973L47.0566 13.5158C52.7045 14.0313 59.0351 15.1721 65.8827 16.4061C67.5218 16.7015 69.1904 17.0022 70.8864 17.3009C79.57 18.8305 88.8526 20.283 97.9429 20.4966C106.769 20.7039 115.553 19.7371 123.537 16.4919C115.97 22.6915 107.241 25.4432 98.003 26.3824C86.7737 27.5242 75.0505 25.9901 63.6655 24.5002C60.1258 24.037 56.6189 23.5781 53.1696 23.2052L52.5001 29.3981C55.6428 29.7379 58.9439 30.1711 62.3529 30.6186C73.8651 32.1296 86.6077 33.8021 98.6331 32.5794C106.418 31.788 114.006 29.7855 120.971 25.7996Z" fill="#7CB7D7"/>
<path fill-rule="evenodd" clip-rule="evenodd" d="M47.6219 17.331C8.04024 40.1835 -5.52145 90.7964 17.331 130.378C40.1835 169.96 90.7964 183.521 130.378 160.669C169.96 137.816 183.521 87.2036 160.669 47.6219C137.816 8.04023 87.2036 -5.52145 47.6219 17.331ZM44.5074 11.9366C1.9465 36.5092 -12.636 90.9316 11.9366 133.493C36.5092 176.054 90.9316 190.636 133.493 166.063C176.054 141.491 190.636 87.0684 166.063 44.5074C141.491 1.9465 87.0684 -12.636 44.5074 11.9366Z" fill="#7CB7D7"/>
<path d="M63.19 113.03V109.256L69.3099 107.774V71.1161L63.19 69.6336V65.86H74.6315L103.169 97.5313V71.1161L97.049 69.6336V65.86H114.81V69.6336L108.69 71.1161V113.03H102.238L74.6315 82.4369V107.774L80.7514 109.256V113.03H63.19Z" fill="#7CB7D7"/>
</svg>
